<svg width="16" height="16" viewBox="0 0 16 16" fill="none" xmlns="http://www.w3.org/2000/svg">
<g clip-path="url(#clip0_112_9)">
<rect width="512" height="512" fill="#FF008A"/>
<path d="M2.45389 6.85162V4.12586L2.78893 5.05986L0 0.180176H1.55745L3.69442 3.92571H2.79798L4.94401 0.180176H6.38374L3.59482 5.05986L3.9208 4.12586V6.85162H2.45389Z" fill="white"/>
<path d="M9.39751 7.00201C8.91128 7.00201 8.45806 6.91819 8.03786 6.75055C7.62366 6.57647 7.26348 6.33147 6.95733 6.01554C6.65119 5.69961 6.41107 5.32888 6.23699 4.90334C6.0689 4.4778 5.98486 4.01036 5.98486 3.501C5.98486 2.99165 6.0689 2.5242 6.23699 2.09867C6.41107 1.67313 6.65119 1.3024 6.95733 0.986471C7.26948 0.670542 7.63266 0.42876 8.04686 0.261124C8.46106 0.0870414 8.91428 0 9.40652 0C9.95278 0 10.445 0.10316 10.8832 0.309481C11.3274 0.509354 11.6996 0.80594 11.9998 1.19924L11.0633 2.12768C10.8472 1.86333 10.6071 1.66668 10.343 1.53773C10.0788 1.40234 9.7907 1.33464 9.47855 1.33464C9.18441 1.33464 8.91428 1.38622 8.66816 1.48938C8.42204 1.59254 8.20894 1.74083 8.02885 1.93426C7.84876 2.12768 7.7077 2.35657 7.60565 2.62092C7.5096 2.88527 7.46158 3.17863 7.46158 3.501C7.46158 3.82338 7.5096 4.11674 7.60565 4.38109C7.7077 4.64544 7.84876 4.87433 8.02885 5.06775C8.20894 5.26118 8.42204 5.40947 8.66816 5.51263C8.91428 5.61579 9.18441 5.66737 9.47855 5.66737C9.7907 5.66737 10.0788 5.6029 10.343 5.47395C10.6071 5.33855 10.8472 5.13545 11.0633 4.86465L11.9998 5.7931C11.6996 6.1864 11.3274 6.48621 10.8832 6.69253C10.445 6.89885 9.94978 7.00201 9.39751 7.00201Z" fill="white"/>
</g>
<defs>
<clipPath id="clip0_112_9">
<rect width="16" height="16" fill="white"/>
</clipPath>
</defs>
</svg>
